<?xml version="1.0" encoding="UTF-8"?>
<svg width="20px" height="20px" viewBox="0 0 20 20" version="1.1" xmlns="http://www.w3.org/2000/svg" xmlns:xlink="http://www.w3.org/1999/xlink">
    <!-- Generator: Sketch 48.2 (47327) - http://www.bohemiancoding.com/sketch -->
    <title>Twitter</title>
    <desc>Created with Sketch.</desc>
    <defs></defs>
    <g id="Desktop-HD" stroke="none" stroke-width="1" fill="none" fill-rule="evenodd" transform="translate(-1272.000000, -59.000000)">
        <g id="Menu-Content" transform="translate(80.000000, 59.000000)" fill="#000000" fill-rule="nonzero">
            <g id="Twitter" transform="translate(1192.000000, 0.000000)">
                <g id="twitter-square">
                    <path d="M17.8571429,0 L2.14285714,0 C0.959821429,0 0,0.959821429 0,2.14285714 L0,17.8571429 C0,19.0401786 0.959821429,20 2.14285714,20 L17.8571429,20 C19.0401786,20 20,19.0401786 20,17.8571429 L20,2.14285714 C20,0.959821429 19.0401786,0 17.8571429,0 Z M15.6741071,7.08928571 C15.6830357,7.21428571 15.6830357,7.34375 15.6830357,7.46875 C15.6830357,11.3392857 12.7366071,15.7991071 7.35267857,15.7991071 C5.69196429,15.7991071 4.15178571,15.3169643 2.85714286,14.4866071 C3.09375,14.5133929 3.32142857,14.5223214 3.5625,14.5223214 C4.93303571,14.5223214 6.19196429,14.0580357 7.19642857,13.2723214 C5.91071429,13.2455357 4.83035714,12.4017857 4.45982143,11.2410714 C4.91071429,11.3080357 5.31696429,11.3080357 5.78125,11.1875 C4.44196429,10.9151786 3.4375,9.73660714 3.4375,8.3125 L3.4375,8.27678571 C3.82589286,8.49553571 4.28125,8.62946429 4.75892857,8.64732143 C3.94323578,8.10474855 3.4537533,7.18948335 3.45535714,6.20982143 C3.45535714,5.66517857 3.59821429,5.16517857 3.85267857,4.73214286 C5.29464286,6.50892857 7.45982143,7.66964286 9.88839286,7.79464286 C9.47321429,5.80803571 10.9598214,4.19642857 12.7455357,4.19642857 C13.5892857,4.19642857 14.3482143,4.54910714 14.8839286,5.12053571 C15.5446429,4.99553571 16.1785714,4.75 16.7410714,4.41517857 C16.5223214,5.09375 16.0625,5.66517857 15.4553571,6.02678571 C16.0446429,5.96428571 16.6160714,5.79910714 17.1428571,5.57142857 C16.7455357,6.15625 16.2455357,6.67410714 15.6741071,7.08928571 Z" id="Shape"></path>
                </g>
            </g>
        </g>
    </g>
</svg>