<?xml version="1.0" encoding="UTF-8"?>
<svg width="20px" height="20px" viewBox="0 0 20 20" version="1.1" xmlns="http://www.w3.org/2000/svg" xmlns:xlink="http://www.w3.org/1999/xlink">
    <!-- Generator: Sketch 48.2 (47327) - http://www.bohemiancoding.com/sketch -->
    <title>loupe</title>
    <desc>Created with Sketch.</desc>
    <defs>
        <polygon id="path-1" points="0.00234375 0.003359375 19.9999993 0.003359375 19.9999993 19.9999993 0.00234375 19.9999993"></polygon>
    </defs>
    <g id="Desktop-HD" stroke="none" stroke-width="1" fill="none" fill-rule="evenodd" transform="translate(-983.000000, -20.000000)">
        <g id="UpperMenu" transform="translate(983.000000, 18.000000)">
            <g id="Search">
                <g id="loupe" transform="translate(0.000000, 2.000000)">
                    <g id="Group-3">
                        <mask id="mask-2" fill="white">
                            <use xlink:href="#path-1"></use>
                        </mask>
                        <g id="Clip-2"></g>
                        <path d="M17.1473822,11.6574605 C14.7198432,14.0850385 10.7700777,14.0850385 8.34253876,11.6574605 C7.1666013,10.4815231 6.5190232,8.91808561 6.5190232,7.2550388 C6.5190232,5.59195292 7.1666013,4.02851548 8.34253876,2.85265615 C9.55632777,1.63890619 11.1506246,1.03199215 12.7449995,1.03199215 C14.3392963,1.03199215 15.9336713,1.63882807 17.1474212,2.85265615 C18.3233587,4.02851548 18.9709759,5.59203105 18.9709759,7.2550388 C18.9709759,8.91804655 18.3233196,10.4815231 17.1473822,11.6574605 Z M6.1847654,15.5763276 L4.42367171,13.8152339 L5.15546856,13.0834761 L6.91656225,14.8446088 L6.1847654,15.5763276 Z M3.1548827,18.6061712 C2.91968739,18.8413665 2.60699209,18.9708587 2.27433585,18.9708587 C1.94171868,18.9708587 1.62898432,18.8413274 1.39378901,18.6061321 C1.15863277,18.3709759 1.02910152,18.0582415 1.02910152,17.7256243 C1.02910152,17.3930462 1.15863277,17.0802728 1.39386714,16.8450775 L3.69597643,14.5429682 L5.45703105,16.3040619 L3.1548827,18.6061712 Z M17.8750775,2.1249218 C15.0462885,-0.703828099 10.4436324,-0.703828099 7.61488253,2.1249218 C6.24457008,3.49519518 5.48992167,5.31714824 5.48992167,7.2550388 C5.48992167,9.02039029 6.11644509,10.6892965 7.26386692,12.0084761 L6.39984352,12.8724995 L5.51929667,11.9919527 C5.4228123,11.8955074 5.29191387,11.8412496 5.15546856,11.8412496 C5.01902325,11.8412496 4.88812482,11.8955074 4.79164045,11.9919527 L0.666249976,16.1174213 C0.236601554,16.5469525 0,17.1181244 0,17.7256243 C0,18.3331634 0.236601554,18.9042962 0.666132788,19.3338274 C1.09570308,19.7634368 1.66687494,19.9999993 2.27433585,19.9999993 C2.88179677,19.9999993 3.45300769,19.7634368 3.88253892,19.3338665 L8.00800752,15.208476 C8.10449189,15.1119916 8.15871064,14.9810932 8.15871064,14.8446479 C8.15871064,14.7082026 8.10449189,14.5773042 8.00800752,14.4808198 L7.12746068,13.6002729 L7.99171846,12.7359761 C9.35085903,13.9162495 11.047773,14.5067573 12.7449214,14.5067573 C14.602812,14.5067573 16.4606635,13.7995698 17.8750384,12.3852339 C19.2453118,11.0148824 19.9999993,9.19300748 19.9999993,7.25511692 C19.9999993,5.31710918 19.2453509,3.49519518 17.8750775,2.1249218 Z" id="Fill-1" fill="#333333" mask="url(#mask-2)"></path>
                    </g>
                    <path d="M15.5705072,10.0805856 C14.0124604,11.6386324 11.4774215,11.6386324 9.91937464,10.0806246 C8.36132782,8.52261687 8.36132782,5.98749978 9.91933557,4.42945296 C10.6984371,3.65035143 11.721523,3.26093738 12.7449214,3.26093738 C13.7681245,3.26093738 14.791601,3.65054674 15.5705072,4.42945296 C17.1285541,5.98746072 17.1285541,8.52253875 15.5705072,10.0805856 Z M16.2982025,3.70175768 C14.3389448,1.74249994 11.1509762,1.74246087 9.19171841,3.70175768 C7.23246067,5.66101542 7.23246067,8.84898405 9.19175748,10.8082418 C10.1714059,11.7878511 11.4581636,12.2776949 12.7449995,12.2776949 C14.0317964,12.2776949 15.3186323,11.7878511 16.2982807,10.8082418 L16.2982807,10.8082027 C18.2574603,8.84898405 18.2574603,5.66101542 16.2982025,3.70175768 Z" id="Fill-4" fill="#333333"></path>
                    <path d="M10.828984,5.33902324 C10.6280465,5.53996073 10.6280465,5.86574197 10.828984,6.06675759 C11.0299215,6.26765602 11.3557027,6.26765602 11.5567183,6.06675759 C12.2118746,5.41152324 13.2780855,5.41152324 13.9333198,6.06675759 C14.0338276,6.16722634 14.1654682,6.21746071 14.2971479,6.21746071 C14.4288276,6.21746071 14.5605463,6.16722634 14.660976,6.06675759 C14.8619135,5.8658201 14.8619135,5.5399998 14.660976,5.33902324 C13.6044136,4.28257797 11.8855074,4.28257797 10.828984,5.33902324" id="Fill-5" fill="#333333"></path>
                </g>
            </g>
        </g>
    </g>
</svg>