<?xml version="1.0" encoding="UTF-8"?>
<svg width="26px" height="20px" viewBox="0 0 26 20" version="1.1" xmlns="http://www.w3.org/2000/svg" xmlns:xlink="http://www.w3.org/1999/xlink">
    <!-- Generator: Sketch 48.2 (47327) - http://www.bohemiancoding.com/sketch -->
    <title>Youtube</title>
    <desc>Created with Sketch.</desc>
    <defs></defs>
    <g id="Desktop-HD" stroke="none" stroke-width="1" fill="none" fill-rule="evenodd" transform="translate(-1332.000000, -59.000000)">
        <g id="Menu-Content" transform="translate(80.000000, 59.000000)" fill="#333333" fill-rule="nonzero">
            <g id="Youtube" transform="translate(1252.000000, 0.000000)">
                <g id="youtube">
                    <path d="M25.4012838,3.12932292 C25.1029129,1.89755208 24.2238091,0.927447917 23.1076142,0.598229167 C21.0844308,0 12.9716981,0 12.9716981,0 C12.9716981,0 4.85901293,0 2.83578203,0.598229167 C1.71958713,0.9275 0.840483305,1.89755208 0.542112444,3.12932292 C0,5.36197917 0,10.0202083 0,10.0202083 C0,10.0202083 0,14.6784375 0.542112444,16.9110938 C0.840483305,18.1428646 1.71958713,19.0725521 2.83578203,19.4017708 C4.85901293,20 12.9716981,20 12.9716981,20 C12.9716981,20 21.0843833,20 23.1076142,19.4017708 C24.2238091,19.0725521 25.1029129,18.1428646 25.4012838,16.9110937 C25.9433962,14.6784375 25.9433962,10.0202083 25.9433962,10.0202083 C25.9433962,10.0202083 25.9433962,5.36197917 25.4012838,3.12932292 Z M10.3183779,14.2495312 L10.3183779,5.79088542 L17.0990113,10.0203125 L10.3183779,14.2495312 Z" id="Shape"></path>
                </g>
            </g>
        </g>
    </g>
</svg>