<?xml version="1.0" encoding="UTF-8"?>
<svg width="267px" height="267px" viewBox="0 0 267 267" version="1.1" xmlns="http://www.w3.org/2000/svg" xmlns:xlink="http://www.w3.org/1999/xlink">
    <!-- Generator: Sketch 48.2 (47327) - http://www.bohemiancoding.com/sketch -->
    <title>Group</title>
    <desc>Created with Sketch.</desc>
    <defs>
        <path d="M266.374,133.469 C266.374,206.838 206.897,266.316 133.528,266.316 C60.158,266.316 0.681,206.838 0.681,133.469 C0.681,60.1 60.158,0.622 133.528,0.622 C206.897,0.622 266.374,60.1 266.374,133.469" id="path-1"></path>
    </defs>
    <g id="Page-1" stroke="none" stroke-width="1" fill="none" fill-rule="evenodd">
        <g id="Group">
            <mask id="mask-2" fill="white">
                <use xlink:href="#path-1"></use>
            </mask>
            <use id="Fill-3" fill="#000206" xlink:href="#path-1"></use>
            <path d="M266.374,133.469 C266.374,206.838 206.897,266.316 133.528,266.316 C60.158,266.316 0.681,206.838 0.681,133.469 C0.681,60.1 60.158,0.622 133.528,0.622 C206.897,0.622 266.374,60.1 266.374,133.469 Z" id="Stroke-4" stroke="#000206" mask="url(#mask-2)"></path>
            <path d="M151.786,188.785 C147.638,192.034 144.797,195.564 145.579,200.85 C145.865,202.782 146.439,204.691 147.067,206.547 C149.594,214.014 151.889,221.492 149.364,230.045 C151.712,228.571 153.564,227.524 155.291,226.301 C160.914,222.322 162.211,217.584 159.235,211.298 C157.834,208.343 156.048,205.571 154.454,202.706 C152.1,198.475 150.469,194.086 151.786,188.785 Z M117.31,229.991 C115.744,224.139 115.956,218.885 117.45,213.678 C118.6,209.669 119.974,205.719 120.969,201.673 C122.171,196.788 119.514,191.464 115.045,189.272 C116.106,193.519 115.055,197.422 113.094,201.124 C111.485,204.165 109.598,207.059 108.039,210.123 C104.257,217.552 105.534,222.348 112.394,226.956 C113.813,227.909 115.304,228.757 117.31,229.991 Z M99.817,221.127 C101.588,216.927 103.287,212.551 105.268,208.306 C106.857,204.903 108.894,201.71 110.535,198.328 C111.886,195.541 112.696,192.395 111.232,189.549 C108.907,185.027 106.092,180.756 103.484,176.379 C102.79,179.123 102.989,181.632 102.198,183.778 C99.859,190.121 97.257,196.376 94.509,202.555 C92.65,206.732 92.674,210.626 95.166,214.437 C96.733,216.832 98.432,219.142 99.817,221.127 Z M163.984,176.72 C163.752,176.603 163.521,176.487 163.289,176.37 C160.752,180.539 157.94,184.573 155.806,188.938 C154.896,190.8 154.778,193.549 155.404,195.55 C156.511,199.096 158.305,202.464 160.097,205.751 C162.834,210.772 165.62,215.739 166.335,221.943 C168.23,219.243 169.97,216.89 171.574,214.448 C174.075,210.637 174.252,206.669 172.207,202.57 C170.528,199.202 168.868,195.82 167.321,192.388 C165.082,187.42 163.509,182.284 163.984,176.72 Z M142.108,61.282 C146.003,60.959 149.782,60.675 153.551,60.294 C154.001,60.249 154.533,59.768 154.801,59.345 C161.292,49.123 171.051,43.988 182.509,41.482 C183.796,41.201 185.085,40.927 186.603,40.601 C179.121,34.985 170.008,33.692 162.177,37.325 C151.681,42.194 146.096,51.232 142.108,61.282 Z M80.301,40.517 C80.642,40.702 80.776,40.818 80.927,40.848 C81.408,40.944 81.898,40.993 82.38,41.084 C93.142,43.122 102.828,47.288 109.619,56.244 C111.771,59.083 113.652,60.73 117.421,60.381 C119.719,60.168 122.135,61.23 124.786,61.779 C121.217,52.452 116.318,44.47 107.95,39.122 C99.197,33.529 88.464,34.106 80.301,40.517 Z M84.798,92.854 C83.895,92.319 83.766,92.184 83.623,92.168 C83.054,92.104 82.48,92.045 81.908,92.043 C73.952,92.022 66.232,93.32 58.924,96.526 C50.39,100.271 43.533,105.874 39.783,114.683 C39.156,116.154 38.772,117.728 38.069,119.891 C48.029,111.215 58.88,106.55 71.313,105.56 C72.712,105.448 74.549,105.25 75.364,104.35 C78.637,100.734 81.587,96.827 84.798,92.854 Z M228.349,119.669 C226.075,103.243 200.579,88.134 182.416,92.469 C184.562,96.809 187.392,100.562 190.78,103.884 C191.522,104.612 192.663,105.129 193.701,105.329 C197.715,106.099 201.826,106.44 205.782,107.419 C214.273,109.52 221.694,113.773 228.349,119.669 Z M35.84,113.998 C36.036,113.671 36.252,113.355 36.422,113.017 C41.51,102.875 49.684,96.301 60.236,92.54 C67.89,89.812 75.835,88.875 83.928,88.896 C84.802,88.898 86.083,88.696 86.475,88.116 C87.719,86.275 88.63,84.21 89.757,82.066 C79.952,79.261 70.398,77.087 60.502,76.752 C54.191,76.539 48.986,78.827 45.601,84.169 C43.166,88.014 41.034,92.125 39.342,96.347 C37.102,101.936 35.917,107.85 35.84,113.998 Z M231.572,113.814 C230.775,109.828 230.14,105.789 229.14,101.842 C227.439,95.131 224.972,88.728 220.523,83.271 C217.619,79.708 214.142,76.884 209.33,77.044 C203.542,77.237 197.727,77.621 192.004,78.468 C186.959,79.214 182.026,80.713 176.856,81.923 C178.007,84.085 178.827,85.885 179.903,87.515 C180.343,88.181 181.314,88.815 182.092,88.883 C185.438,89.172 188.819,89.084 192.157,89.427 C203.064,90.549 213.293,93.683 221.385,101.413 C225.166,105.026 228.1,109.527 231.572,113.814 Z M133.317,239.911 C135.888,237.155 138.41,234.116 141.281,231.453 C145.911,227.158 146.972,221.999 146.107,215.994 C145.099,209.002 141.429,202.518 142.594,194.869 C140.537,195.862 138.871,196.545 137.327,197.44 C134.694,198.964 132.167,199.03 129.508,197.49 C127.902,196.559 126.155,195.869 124.752,195.205 C124.2,198.837 123.769,202.39 123.09,205.894 C122.592,208.458 121.714,210.947 121.098,213.492 C119.307,220.898 120.344,227.407 126.613,232.611 C129.168,234.732 131.163,237.528 133.317,239.911 Z M42.681,158.83 C48.944,157.078 52.55,152.967 54.904,147.669 C57.981,140.747 62.767,135.241 68.45,130.376 C70.564,128.567 72.61,126.634 74.424,124.531 C76.281,122.379 77.395,119.814 76.887,116.827 C76.515,114.647 76.066,112.479 75.755,110.291 C75.555,108.883 74.829,108.277 73.462,108.36 C71.581,108.475 69.693,108.543 67.82,108.741 C57.504,109.829 48.579,117.233 46.201,127.221 C45.244,131.241 45.044,135.495 44.945,139.653 C44.791,146.038 45.168,152.447 42.681,158.83 Z M223.769,158.827 C223.241,156.188 222.464,153.737 222.31,151.248 C221.97,145.764 221.956,140.26 221.788,134.765 C221.316,119.386 210.436,108.622 195.079,108.326 C191.35,108.254 191.362,108.256 190.795,111.883 C190.606,113.096 190.445,114.33 190.086,115.498 C189.225,118.31 189.761,120.925 191.379,123.213 C192.693,125.07 194.21,126.873 195.954,128.32 C203.056,134.218 209.029,140.914 212.796,149.5 C214.866,154.218 218.68,157.296 223.769,158.827 Z M53.881,73.354 C54.993,73.628 55.218,73.733 55.443,73.732 C66.943,73.689 78.085,75.718 89.07,79.072 C92.126,80.005 95.033,77.851 97.916,76.799 C98.237,76.682 98.433,75.989 98.532,75.529 C100.139,68.1 94.831,58.021 87.813,55.131 C79.758,51.814 73.189,56.759 74.177,65.405 C74.343,66.861 74.574,68.309 74.775,69.761 C71.96,66.134 70.044,62.211 69.947,57.629 C69.849,53.014 71.809,50.142 76.26,48.843 C78.263,48.258 80.517,47.846 82.542,48.142 C92.516,49.6 100.339,54.468 105.396,63.391 C105.575,63.706 105.809,63.991 106.05,64.339 C107.332,63.453 108.45,62.679 109.589,61.892 C109.216,61.03 108.996,60.416 108.696,59.846 C103.617,50.193 88.225,42.219 77.452,43.729 C71.43,44.574 67.305,47.912 65.69,53.797 C65.037,56.18 65.008,58.807 65.124,61.303 C65.204,63.015 64.981,63.991 63.475,65.111 C60.277,67.491 57.392,70.291 53.881,73.354 Z M211.985,73.636 C212.12,73.443 212.255,73.25 212.39,73.057 C209.562,70.524 206.907,67.75 203.841,65.546 C201.88,64.135 201.398,62.866 201.752,60.558 C203.136,51.543 196.637,43.783 187.565,43.654 C175.475,43.483 166.247,49.112 158.958,58.358 C158.176,59.351 157.717,60.6 157.039,61.858 C158.396,62.775 159.527,63.539 160.801,64.399 C161.176,63.681 161.426,63.095 161.766,62.567 C167.524,53.622 175.629,48.487 186.329,48.084 C191.815,47.877 196.068,51.038 196.652,55.355 C197.396,60.855 195.162,65.531 191.946,70.434 C192.213,67.832 192.602,65.812 192.597,63.793 C192.581,57.342 188.681,53.386 182.871,54.275 C180.379,54.657 177.688,55.621 175.711,57.135 C169.871,61.609 167.53,67.849 168.229,75.123 C168.316,76.025 169.481,77.087 170.409,77.58 C171.598,78.21 173.041,78.401 174.398,78.663 C175.581,78.891 176.862,79.273 177.987,79.041 C185.189,77.553 192.32,75.689 199.556,74.413 C203.618,73.696 207.836,73.866 211.985,73.636 Z M74.162,212.632 C77.2,210.822 80.163,209.494 82.61,207.524 C93.763,198.55 99.241,186.617 99.77,172.473 C99.995,166.469 98.447,160.789 94.348,156.029 C93.588,155.147 92.959,153.705 93.068,152.599 C93.513,148.075 94.267,143.581 94.944,138.818 C93.427,137.564 91.479,135.954 89.522,134.336 C89.428,134.416 89.282,134.494 89.204,134.615 C89.026,134.888 88.882,135.182 88.725,135.468 C82.705,146.403 81.038,158.157 82.131,170.435 C82.912,179.199 83.633,188.024 80.836,196.539 C79.093,201.849 76.57,206.903 74.162,212.632 Z M171.8,138.791 C172.467,143.698 173.18,148.286 173.646,152.898 C173.743,153.861 173.161,155.116 172.493,155.894 C169.387,159.511 167.581,163.679 167.208,168.373 C166.047,182.98 171.227,195.223 181.505,205.412 C184.648,208.527 188.361,210.86 193.008,212.268 C192.558,211.415 192.326,210.903 192.033,210.429 C185.746,200.249 183.321,189.236 184.134,177.281 C184.651,169.691 184.701,162.017 184.218,154.428 C183.758,147.195 180.875,140.546 177.315,134.221 C175.206,135.968 173.259,137.582 171.8,138.791 Z M75.426,201.995 C75.742,201.728 75.901,201.649 75.973,201.522 C76.134,201.24 76.258,200.936 76.385,200.636 C80.206,191.637 80.078,182.252 79.051,172.795 C78.326,166.116 77.255,159.493 78.71,152.732 C80.173,145.933 82.69,139.592 85.884,133.464 C86.25,132.763 86.65,131.522 86.317,131.104 C83.935,128.121 81.368,125.286 79.306,122.918 C75.943,126.617 72.741,130.199 69.468,133.714 C67.847,135.455 66.013,136.999 64.418,138.761 C57.271,146.659 55.509,155.833 58.075,166.015 C59.419,171.353 62.646,175.589 66.017,179.736 C70.204,184.889 73.684,190.387 74.79,197.085 C75.051,198.665 75.204,200.262 75.426,201.995 Z M187.99,122.191 C185.423,125.158 183.056,127.771 180.869,130.526 C180.418,131.093 180.316,132.327 180.607,133.022 C181.68,135.584 183.095,138.003 184.183,140.56 C187.872,149.226 189.477,158.143 188.384,167.655 C187.564,174.784 187.444,182.024 187.492,189.212 C187.521,193.671 188.895,197.991 191.203,202.416 C191.4,201.383 191.57,200.832 191.602,200.272 C191.993,193.48 194.698,187.618 198.775,182.3 C200.671,179.826 202.664,177.419 204.447,174.866 C209.683,167.359 211.036,159.053 208.836,150.266 C207.159,143.563 202.755,138.549 197.692,134.109 C193.845,130.735 190.297,127.145 187.99,122.191 Z M108.032,165.806 C104.798,173.898 109,179.289 114.996,183.633 C120.029,187.281 125.458,190.38 130.696,193.749 C132.573,194.955 134.376,194.805 136.189,193.653 C141.306,190.4 146.522,187.289 151.499,183.834 C153.686,182.317 155.534,180.228 157.278,178.179 C159.792,175.223 160.217,171.698 159.363,167.977 C159.188,167.218 159.056,166.45 158.852,165.42 C162.658,165.409 164.24,163.08 165.529,160.118 C166.294,158.357 167.765,156.91 168.841,155.271 C169.315,154.548 170.009,153.635 169.898,152.919 C169.308,149.129 168.712,145.314 167.698,141.623 C166.593,137.603 166.993,136.461 170.605,134.187 C173.15,132.584 175.561,130.708 177.807,128.703 C183.63,123.506 186.085,116.472 188.181,109.237 C188.748,107.28 188.522,105.93 187.028,104.454 C185.417,102.862 183.954,101.018 182.835,99.052 C180.204,94.426 177.694,89.72 175.379,84.927 C174.306,82.704 172.768,81.804 170.455,81.654 C167.377,81.455 165.31,79.816 164.105,76.979 C163.241,74.945 162.32,72.93 161.31,70.964 C157.79,64.107 152.479,61.72 145.229,64.157 C142.252,65.157 139.49,66.897 136.767,68.529 C132.471,71.104 134.241,70.976 130.02,68.599 C126.699,66.729 123.266,64.919 119.672,63.704 C114.901,62.09 110.63,63.618 107.718,67.689 C105.739,70.456 104.219,73.591 102.787,76.696 C101.418,79.664 99.413,81.522 96.11,81.671 C93.824,81.774 92.592,82.915 91.391,84.851 C87.05,91.847 84.799,100.123 78.536,105.958 C78.162,106.307 78.188,107.32 78.332,107.955 C80.961,119.543 86.239,129.254 97.34,134.909 C99.593,136.057 100.113,138.072 99.322,140.612 C98.835,142.175 98.189,143.717 97.941,145.319 C97.245,149.808 95.602,154.486 100.108,158.166 C100.819,158.746 101.295,159.778 101.573,160.694 C102.394,163.402 104.083,164.978 106.911,165.324 C107.213,165.36 107.494,165.568 108.032,165.806 Z" id="Fill-5" fill="#FFFFFE" mask="url(#mask-2)"></path>
            <path d="M159.243,28.812 C160.898,29.206 162.553,29.6 164.437,30.049 C163.994,30.421 163.687,30.758 163.313,30.981 C150.785,38.45 142.6,49.436 137.66,62.956 C136.954,64.889 135.712,65.906 134.13,66.754 C132.743,67.498 129.999,65.584 129.254,63.4 C126.35,54.887 121.928,47.218 115.615,40.847 C111.673,36.87 107.088,33.529 102.824,29.93 C104.124,29.618 105.801,29.215 107.477,28.812 C109.449,28.812 111.421,28.812 113.393,28.812 C120.196,30.022 126.47,32.614 132.445,36.026 C132.914,36.294 133.804,36.294 134.274,36.026 C140.247,32.609 146.528,30.035 153.327,28.812 C155.299,28.812 157.271,28.812 159.243,28.812" id="Fill-6" fill="#FFFFFE" mask="url(#mask-2)"></path>
            <path d="M100.201,147.688 C99.5,150.208 99.462,152.255 101.556,154.062 C102.663,155.017 103.325,156.531 103.908,157.867 L104.057,158.207 C105.297,161.024 106.028,161.753 107.613,161.753 C108.228,161.753 109.015,161.634 110.089,161.38 C116.027,159.972 120.902,158.655 125.429,157.234 C131.154,155.437 132.329,153.293 130.668,147.678 C129.875,144.997 128.4,141.368 124.75,140.814 C119.368,139.998 117.547,136.12 115.786,132.369 C115.6,131.974 115.414,131.579 115.224,131.185 L113.876,128.399 L119.684,134.376 C121.486,132.583 122.383,131.759 123.58,131.759 C124.601,131.759 125.648,132.394 127.548,133.546 L127.674,133.624 C128.973,134.411 130.24,135.124 131.462,135.216 C131.998,135.257 132.534,135.281 133.065,135.281 C136.243,135.281 138.658,134.463 140.664,132.708 C141.451,132.021 142.264,131.672 143.083,131.672 C144.144,131.672 145.169,132.272 146.048,133.408 C146.303,133.737 146.491,134.097 146.707,134.514 C146.718,134.534 146.728,134.554 146.739,134.574 L151.784,129.266 L151.425,130.985 C150.585,135.022 147.121,139.879 143.741,140.339 C139.996,140.85 138.102,143.174 136.408,146.507 C135.206,148.874 134.951,151.09 135.669,152.917 C136.362,154.676 137.96,156.058 140.291,156.912 C144.436,158.431 147.841,159.51 151.006,160.308 C152.952,160.798 155.017,161.026 157.013,161.247 C157.74,161.327 158.465,161.407 159.188,161.499 C159.342,161.518 159.49,161.528 159.63,161.528 C160.736,161.528 161.466,160.934 162.235,159.411 C162.952,157.991 163.804,156.623 164.628,155.298 C165.167,154.433 165.707,153.567 166.212,152.682 C166.596,152.013 167.086,151.158 166.992,150.614 C166.476,147.631 165.845,144.17 164.891,140.834 C164.272,138.673 163.548,136.095 162.826,133.52 C161.737,129.636 160.61,125.621 159.886,123.207 C159.856,123.106 159.786,122.872 159.946,122.656 L160.096,122.455 L160.352,122.452 C160.746,122.452 160.746,122.452 162.86,126.375 C163.795,128.113 164.841,130.053 165.586,131.321 C173.392,125.083 177.461,119.242 173.921,109.799 L173.13,107.691 L174.739,109.266 C178.071,112.53 178.385,116.351 178.718,120.396 C178.745,120.713 178.771,121.033 178.798,121.354 C179.219,120.744 179.629,120.161 180.027,119.595 C181.405,117.637 182.595,115.946 183.538,114.113 C184.737,111.786 185.901,109.095 184.534,106.615 C180.789,99.828 176.848,93.262 173.131,87.119 C172.739,86.47 171.754,85.824 170.841,85.614 C166.717,84.67 162.284,82.929 160.669,77.169 C160.168,75.382 159.232,72.88 157.612,71.112 C155.098,68.367 151.986,66.916 148.612,66.916 C145.372,66.916 142.11,68.262 139.178,70.809 C136.113,73.471 134.699,74.647 133.291,74.648 C132.136,74.648 131.171,73.85 129.573,72.528 C129.002,72.056 128.34,71.509 127.547,70.894 C125.002,68.921 122.147,67.623 119.713,67.332 C118.883,67.233 118.087,67.183 117.348,67.183 C111.587,67.183 108.207,70.165 106.049,77.154 C104.264,82.939 99.921,84.676 95.909,85.613 C94.988,85.828 93.95,86.56 93.495,87.317 C89.599,93.8 86.143,99.781 82.928,105.601 C82.191,106.937 81.798,108.563 81.904,109.845 C82.213,113.601 84.298,116.378 86.713,119.593 C87.126,120.144 87.548,120.706 87.968,121.284 C87.995,120.95 88.018,120.618 88.042,120.29 C88.329,116.336 88.601,112.603 91.568,109.697 L92.758,108.531 L92.406,110.16 C90.122,120.73 92.159,123.893 101.21,131.213 L107.687,120.766 L100.201,147.688 Z M118.192,177.015 C119.099,178.207 119.966,179.371 120.814,180.506 C122.631,182.944 124.347,185.246 126.175,187.457 C128.482,190.25 130.901,191.666 133.364,191.666 C135.845,191.666 138.278,190.231 140.595,187.399 C142.411,185.179 144.123,182.876 145.938,180.438 C146.785,179.3 147.652,178.134 148.559,176.937 L149.943,175.111 L148.065,183.552 L148.162,183.636 C148.679,183.066 149.203,182.5 149.726,181.935 C151.103,180.447 152.527,178.908 153.803,177.307 C156.731,173.634 156.533,170.473 153.161,167.058 C148.204,162.039 141.849,160.671 135.718,159.941 C134.946,159.849 134.144,159.802 133.336,159.802 C129.687,159.802 126.102,160.743 122.445,161.791 C118.204,163.006 114.794,165.36 112.022,168.988 C110.632,170.807 110.437,172.874 111.457,174.968 C112.972,178.076 115.465,180.269 118.352,182.808 C118.417,182.866 118.482,182.922 118.547,182.98 L116.82,175.249 L118.192,177.015 Z M133.325,195.087 C132.349,195.087 131.374,194.779 130.426,194.169 C128.712,193.067 126.977,191.994 125.243,190.92 C121.732,188.748 118.102,186.5 114.704,184.039 C109.954,180.598 104.079,175.011 107.399,166.058 C107.371,166.043 107.342,166.029 107.316,166.015 C107.108,165.91 106.957,165.833 106.85,165.82 C103.884,165.458 102.001,163.828 101.095,160.839 C100.777,159.791 100.314,158.979 99.791,158.553 C95.656,155.175 96.41,151.032 97.138,147.025 C97.246,146.429 97.355,145.834 97.447,145.243 C97.63,144.054 98.025,142.901 98.407,141.786 C98.556,141.345 98.706,140.906 98.844,140.464 C99.61,138.009 99.043,136.338 97.114,135.355 C87.025,130.216 80.903,121.544 77.845,108.065 C77.829,107.993 77.452,106.287 78.196,105.592 C82.244,101.821 84.645,96.894 86.968,92.129 C88.196,89.611 89.464,87.007 90.966,84.587 C92.186,82.622 93.524,81.288 96.088,81.172 C98.934,81.043 100.918,79.554 102.332,76.487 C103.731,73.457 105.266,70.258 107.312,67.398 C109.571,64.241 112.582,62.571 116.022,62.571 C117.258,62.571 118.54,62.793 119.832,63.23 C123.513,64.475 127.022,66.337 130.265,68.164 C131.08,68.623 131.675,68.999 132.133,69.289 C132.757,69.683 133.133,69.921 133.376,69.921 C133.641,69.921 134.055,69.654 134.805,69.169 C135.243,68.887 135.792,68.531 136.511,68.101 L137.231,67.668 C139.724,66.166 142.303,64.613 145.07,63.683 C146.954,63.049 148.747,62.728 150.398,62.728 C155.206,62.728 159.028,65.422 161.755,70.736 C162.691,72.558 163.61,74.536 164.565,76.784 C165.739,79.543 167.675,80.973 170.488,81.155 C173.077,81.323 174.724,82.419 175.83,84.709 C178.017,89.238 180.45,93.848 183.27,98.805 C184.319,100.647 185.74,102.477 187.379,104.098 C188.932,105.632 189.303,107.162 188.663,109.375 C186.623,116.413 184.131,123.729 178.14,129.076 C175.726,131.232 173.28,133.094 170.871,134.61 C167.476,136.748 167.124,137.648 168.181,141.491 C169.206,145.225 169.809,149.097 170.392,152.842 C170.52,153.667 169.943,154.526 169.434,155.283 L169.259,155.545 C168.856,156.16 168.398,156.749 167.955,157.318 C167.181,158.315 166.45,159.256 165.987,160.318 C164.867,162.893 163.344,165.633 159.454,165.899 L159.524,166.257 C159.636,166.848 159.734,167.359 159.85,167.865 C160.818,172.079 160.08,175.658 157.659,178.503 C155.907,180.562 154.01,182.702 151.785,184.246 C148.247,186.7 144.536,189.016 140.946,191.256 C139.447,192.192 137.948,193.127 136.457,194.075 C135.4,194.747 134.346,195.087 133.325,195.087 Z" id="Fill-7" fill="#1A1919" mask="url(#mask-2)"></path>
            <path d="M117.724,181.587 C115.288,179.424 113.209,177.422 111.907,174.749 C110.975,172.836 111.152,170.949 112.419,169.291 C115.124,165.751 118.449,163.456 122.582,162.271 C126.203,161.234 129.75,160.302 133.335,160.302 C134.123,160.302 134.906,160.348 135.66,160.438 C141.7,161.157 147.957,162.5 152.804,167.409 C156.003,170.649 156.186,173.516 153.412,176.995 C152.147,178.582 150.729,180.115 149.358,181.596 C149.206,181.76 149.054,181.924 148.903,182.088 L150.929,172.982 L148.161,176.635 C147.252,177.832 146.385,178.999 145.538,180.138 C143.727,182.572 142.017,184.871 140.207,187.082 C137.99,189.792 135.688,191.166 133.364,191.166 C131.057,191.166 128.768,189.812 126.56,187.139 C124.74,184.935 123.027,182.638 121.213,180.206 C120.366,179.069 119.498,177.906 118.59,176.712 L115.821,173.073 L117.724,181.587 Z M133.291,75.148 C134.876,75.148 136.342,73.933 139.505,71.186 C142.346,68.719 145.495,67.416 148.611,67.416 C151.841,67.416 154.827,68.811 157.243,71.449 C158.796,73.146 159.703,75.57 160.188,77.304 C161.872,83.316 166.462,85.125 170.73,86.102 C171.499,86.277 172.384,86.85 172.704,87.377 C176.424,93.53 180.37,100.102 184.095,106.856 C185.344,109.121 184.233,111.671 183.094,113.884 C182.166,115.685 180.987,117.362 179.621,119.304 C179.475,119.51 179.329,119.719 179.181,119.929 C178.849,115.946 178.435,112.187 175.088,108.909 L171.871,105.758 L173.453,109.975 C176.818,118.951 173.06,124.603 165.726,130.565 C165.019,129.329 164.119,127.658 163.302,126.143 C161.043,121.952 161.043,121.952 160.352,121.952 L159.85,121.952 L159.545,122.357 C159.338,122.635 159.292,122.969 159.407,123.35 C160.131,125.764 161.259,129.787 162.35,133.677 C163.071,136.246 163.792,138.816 164.41,140.972 C165.359,144.287 165.986,147.731 166.499,150.699 C166.562,151.064 166.07,151.924 165.806,152.387 L165.779,152.434 C165.28,153.307 164.734,154.184 164.204,155.033 C163.374,156.366 162.515,157.745 161.788,159.186 C161.011,160.727 160.408,161.028 159.63,161.028 C159.509,161.028 159.383,161.02 159.251,161.002 C158.525,160.91 157.794,160.83 157.064,160.749 C155.085,160.531 153.038,160.304 151.128,159.823 C147.988,159.032 144.598,157.958 140.463,156.443 C138.27,155.639 136.773,154.357 136.135,152.734 C135.47,151.044 135.718,148.969 136.854,146.733 C138.522,143.449 140.267,141.317 143.808,140.835 C147.495,140.333 151.038,135.295 151.914,131.087 L152.63,127.649 L146.854,133.727 C146.73,133.509 146.6,133.303 146.444,133.101 C145.209,131.507 143.935,131.172 143.083,131.172 C142.14,131.172 141.215,131.562 140.335,132.332 C138.425,134.002 136.115,134.78 133.066,134.78 C132.573,134.78 132.045,134.759 131.499,134.718 C130.386,134.633 129.178,133.95 127.934,133.196 L127.806,133.118 C125.829,131.92 124.741,131.26 123.58,131.26 C122.28,131.26 121.316,132.063 119.69,133.666 L116.534,130.417 L116.392,130.271 L112.078,125.832 L114.774,131.403 C114.963,131.795 115.148,132.188 115.333,132.582 C117.15,136.451 119.029,140.452 124.675,141.308 C127.273,141.702 128.973,143.71 130.189,147.82 C131.76,153.133 130.704,155.054 125.279,156.756 C120.762,158.174 115.898,159.489 109.974,160.893 C108.938,161.139 108.188,161.253 107.612,161.253 C106.34,161.253 105.747,160.805 104.514,158.004 L104.368,157.67 C103.763,156.285 103.077,154.714 101.883,153.684 C99.981,152.043 100.014,150.225 100.682,147.822 L109.106,117.527 L101.085,130.466 C92.598,123.551 90.706,120.392 92.895,110.266 L93.599,107.008 L91.218,109.34 C88.205,112.291 87.856,115.982 87.569,119.902 C87.416,119.697 87.264,119.495 87.113,119.293 C84.745,116.14 82.7,113.417 82.402,109.804 C82.304,108.615 82.673,107.097 83.366,105.843 C86.573,100.036 90.026,94.061 93.923,87.574 C94.303,86.942 95.245,86.281 96.023,86.099 C100.173,85.13 104.667,83.328 106.527,77.302 C108.609,70.559 111.845,67.682 117.348,67.682 C118.067,67.682 118.844,67.731 119.654,67.828 C121.999,68.108 124.765,69.37 127.241,71.289 C128.026,71.897 128.678,72.437 129.254,72.913 C130.939,74.307 131.956,75.148 133.291,75.148 Z M116.022,62.071 C112.414,62.072 109.261,63.813 106.905,67.107 C104.834,70.002 103.286,73.225 101.878,76.278 C100.532,79.196 98.74,80.552 96.065,80.672 C93.119,80.805 91.669,82.506 90.541,84.324 C89.026,86.766 87.751,89.381 86.518,91.91 C84.109,96.851 81.834,101.518 77.854,105.227 C76.918,106.099 77.309,107.966 77.357,108.176 C80.45,121.812 86.656,130.589 96.886,135.8 C97.956,136.345 99.273,137.406 98.367,140.315 C98.231,140.75 98.083,141.185 97.934,141.619 C97.546,142.756 97.143,143.933 96.953,145.166 C96.862,145.753 96.754,146.343 96.646,146.934 C95.926,150.891 95.11,155.375 99.475,158.94 C99.915,159.299 100.331,160.044 100.617,160.984 C101.572,164.134 103.644,165.927 106.776,166.314 C103.676,175.332 109.603,180.96 114.409,184.444 C117.822,186.916 121.46,189.167 124.978,191.344 C126.683,192.399 128.446,193.49 130.156,194.589 C131.185,195.251 132.251,195.587 133.325,195.587 C134.443,195.587 135.586,195.22 136.725,194.497 C138.213,193.551 139.71,192.617 141.206,191.683 C144.803,189.438 148.522,187.118 152.07,184.656 C154.345,183.078 156.266,180.911 158.039,178.828 C160.569,175.854 161.342,172.128 160.337,167.753 C160.234,167.304 160.146,166.852 160.049,166.342 C163.62,165.866 165.241,163.285 166.446,160.517 C166.882,159.513 167.595,158.595 168.351,157.624 C168.799,157.047 169.263,156.451 169.677,155.82 L169.849,155.562 C170.381,154.769 171.044,153.783 170.886,152.765 C170.301,149.006 169.696,145.119 168.663,141.358 C167.661,137.713 167.914,137.062 171.138,135.033 C173.568,133.503 176.036,131.625 178.473,129.449 C184.563,124.014 187.083,116.622 189.142,109.515 C189.833,107.129 189.412,105.403 187.731,103.742 C186.123,102.154 184.731,100.361 183.704,98.558 C180.893,93.616 178.464,89.016 176.28,84.493 C175.086,82.02 173.31,80.837 170.52,80.656 C167.914,80.487 166.117,79.157 165.025,76.588 C164.065,74.328 163.14,72.339 162.2,70.507 C159.379,65.013 155.409,62.228 150.398,62.228 C148.693,62.228 146.847,62.558 144.91,63.208 C142.091,64.156 139.488,65.724 136.97,67.24 L136.253,67.671 C135.527,68.107 134.975,68.463 134.533,68.75 C134.036,69.071 133.522,69.403 133.371,69.421 C133.25,69.404 132.819,69.13 132.401,68.866 C131.953,68.582 131.338,68.194 130.511,67.728 C127.246,65.889 123.712,64.014 119.993,62.756 C118.649,62.302 117.313,62.071 116.022,62.071 Z M119.372,184.378 C118.773,181.698 118.327,179.698 117.794,177.318 C120.644,181.063 123.098,184.517 125.789,187.776 C128.208,190.704 130.788,192.166 133.364,192.166 C135.96,192.166 138.554,190.682 140.982,187.715 C143.656,184.447 146.108,180.999 148.957,177.239 C148.413,179.686 147.962,181.71 147.512,183.735 C147.743,183.935 147.974,184.135 148.204,184.335 C150.209,182.103 152.327,179.96 154.194,177.619 C157.334,173.679 157.041,170.277 153.516,166.706 C148.633,161.76 142.339,160.226 135.778,159.445 C134.956,159.347 134.143,159.302 133.335,159.302 C129.589,159.302 125.969,160.26 122.307,161.31 C117.798,162.602 114.371,165.09 111.624,168.684 C110.116,170.658 109.906,172.925 111.008,175.187 C112.806,178.876 115.948,181.317 119.372,184.378 Z M133.291,74.148 C131.954,74.148 130.797,72.781 127.853,70.499 C125.559,68.721 122.591,67.172 119.773,66.835 C118.923,66.734 118.115,66.682 117.348,66.682 C111.296,66.682 107.769,69.889 105.572,77.007 C104.011,82.063 100.454,84.038 95.795,85.125 C94.775,85.363 93.6,86.171 93.066,87.059 C89.438,93.098 85.897,99.192 82.491,105.359 C81.761,106.681 81.284,108.406 81.405,109.886 C81.818,114.888 85.31,118.281 88.35,122.685 C88.825,117.79 88.532,113.37 91.917,110.054 C89.557,120.979 91.858,124.338 101.337,131.957 C102.922,129.401 104.5,126.854 106.267,124.005 C104.006,132.134 101.863,139.844 99.719,147.554 C99.007,150.112 98.881,152.414 101.229,154.441 C102.339,155.398 102.978,156.998 103.599,158.408 C104.81,161.159 105.641,162.253 107.612,162.253 C108.311,162.253 109.152,162.116 110.204,161.867 C115.369,160.642 120.517,159.299 125.579,157.71 C131.517,155.847 132.892,153.437 131.148,147.537 C130.201,144.333 128.576,140.888 124.825,140.319 C119.164,139.461 117.669,135.09 115.674,130.968 C117.01,132.342 118.346,133.717 119.678,135.088 C121.63,133.141 122.518,132.26 123.58,132.26 C124.481,132.26 125.507,132.894 127.415,134.051 C128.648,134.798 130.049,135.611 131.424,135.715 C131.974,135.756 132.522,135.78 133.066,135.78 C135.916,135.78 138.649,135.135 140.994,133.085 C141.704,132.464 142.408,132.172 143.083,132.172 C144.008,132.172 144.882,132.718 145.653,133.713 C145.996,134.157 146.219,134.695 146.625,135.419 C148.396,133.556 149.68,132.205 150.936,130.883 C150.115,134.83 146.794,139.419 143.673,139.844 C139.568,140.403 137.604,143.048 135.962,146.281 C133.436,151.254 134.968,155.495 140.119,157.381 C143.652,158.676 147.239,159.875 150.883,160.792 C153.562,161.467 156.369,161.643 159.124,161.995 C159.301,162.017 159.469,162.028 159.63,162.028 C161.137,162.028 161.961,161.061 162.681,159.636 C163.848,157.323 165.358,155.186 166.647,152.931 C167.067,152.195 167.612,151.264 167.485,150.528 C166.913,147.227 166.292,143.914 165.371,140.697 C163.801,135.216 161.562,127.055 160.365,123.063 C160.342,122.987 160.338,122.952 160.352,122.952 C160.539,122.952 163.94,129.605 165.451,132.067 C172.777,126.299 178.315,120.095 174.389,109.624 C178.199,113.355 177.897,117.826 178.433,122.78 C180.616,119.518 182.577,117.073 183.983,114.342 C185.235,111.911 186.446,109.047 184.97,106.374 C181.332,99.777 177.458,93.307 173.559,86.86 C173.064,86.041 171.918,85.348 170.953,85.126 C166.295,84.061 162.579,82.133 161.151,77.035 C160.528,74.811 159.509,72.444 157.98,70.774 C155.324,67.874 152.035,66.416 148.612,66.416 C145.335,66.416 141.937,67.75 138.85,70.431 C135.868,73.021 134.504,74.148 133.291,74.148 Z M116.022,63.071 C117.194,63.071 118.415,63.278 119.672,63.704 C123.266,64.919 126.699,66.729 130.02,68.599 C132.143,69.794 132.75,70.421 133.376,70.421 C133.996,70.421 134.632,69.809 136.767,68.529 C139.49,66.897 142.252,65.157 145.229,64.157 C147.077,63.536 148.799,63.228 150.398,63.228 C155.071,63.228 158.688,65.855 161.31,70.964 C162.32,72.93 163.241,74.945 164.105,76.979 C165.31,79.816 167.377,81.455 170.455,81.654 C172.768,81.804 174.306,82.704 175.379,84.927 C177.694,89.72 180.204,94.426 182.835,99.052 C183.954,101.018 185.417,102.862 187.028,104.454 C188.522,105.93 188.748,107.28 188.181,109.237 C186.085,116.472 183.63,123.506 177.807,128.703 C175.561,130.708 173.15,132.584 170.605,134.187 C166.993,136.461 166.593,137.603 167.698,141.623 C168.712,145.314 169.308,149.129 169.898,152.919 C170.009,153.635 169.315,154.548 168.841,155.271 C167.765,156.91 166.294,158.357 165.529,160.118 C164.24,163.08 162.657,165.409 158.852,165.42 C159.056,166.45 159.188,167.218 159.363,167.977 C160.217,171.698 159.792,175.223 157.278,178.179 C155.534,180.228 153.686,182.317 151.499,183.834 C146.522,187.289 141.306,190.4 136.189,193.653 C135.236,194.258 134.285,194.587 133.325,194.587 C132.458,194.587 131.585,194.32 130.696,193.749 C125.458,190.38 120.029,187.281 114.996,183.633 C109,179.289 104.798,173.898 108.032,165.806 C107.494,165.568 107.213,165.36 106.911,165.324 C104.083,164.978 102.394,163.402 101.573,160.694 C101.295,159.778 100.819,158.746 100.108,158.166 C95.602,154.486 97.245,149.808 97.941,145.319 C98.189,143.717 98.835,142.175 99.322,140.612 C100.113,138.072 99.593,136.057 97.34,134.91 C86.239,129.254 80.961,119.543 78.332,107.955 C78.188,107.32 78.162,106.307 78.536,105.958 C84.799,100.123 87.05,91.847 91.391,84.851 C92.592,82.915 93.824,81.774 96.11,81.671 C99.413,81.522 101.418,79.664 102.787,76.696 C104.219,73.591 105.739,70.456 107.718,67.689 C109.863,64.691 112.746,63.072 116.022,63.071 Z" id="Fill-8" fill="#1A1919" mask="url(#mask-2)"></path>
            <path d="M187.99,122.191 C190.297,127.145 193.845,130.735 197.692,134.109 C202.755,138.549 207.159,143.563 208.836,150.266 C211.036,159.053 209.683,167.359 204.447,174.866 C202.664,177.419 200.671,179.826 198.775,182.3 C194.698,187.618 191.993,193.48 191.602,200.272 C191.57,200.832 191.4,201.383 191.203,202.416 C188.895,197.991 187.521,193.671 187.492,189.212 C187.444,182.024 187.564,174.784 188.384,167.655 C189.477,158.143 187.872,149.226 184.183,140.56 C183.095,138.003 181.68,135.584 180.607,133.022 C180.316,132.327 180.418,131.093 180.869,130.526 C183.056,127.771 185.423,125.158 187.99,122.191" id="Fill-9" fill="#FFFFFE" mask="url(#mask-2)"></path>
            <path d="M75.426,201.995 C75.204,200.262 75.051,198.665 74.79,197.085 C73.684,190.387 70.204,184.889 66.017,179.736 C62.646,175.589 59.419,171.353 58.075,166.015 C55.509,155.833 57.271,146.659 64.418,138.761 C66.013,136.999 67.847,135.455 69.468,133.714 C72.741,130.199 75.943,126.617 79.306,122.918 C81.368,125.286 83.935,128.121 86.317,131.104 C86.65,131.522 86.25,132.763 85.884,133.464 C82.69,139.592 80.173,145.933 78.71,152.732 C77.255,159.493 78.326,166.116 79.051,172.795 C80.078,182.252 80.206,191.637 76.385,200.636 C76.258,200.936 76.134,201.24 75.973,201.522 C75.901,201.649 75.742,201.728 75.426,201.995" id="Fill-10" fill="#FFFFFE" mask="url(#mask-2)"></path>
            <path d="M171.8,138.791 C173.259,137.582 175.206,135.968 177.315,134.221 C180.875,140.546 183.758,147.195 184.218,154.428 C184.701,162.017 184.651,169.691 184.134,177.281 C183.321,189.236 185.746,200.249 192.033,210.429 C192.326,210.903 192.558,211.415 193.008,212.268 C188.361,210.86 184.648,208.527 181.505,205.412 C171.227,195.223 166.047,182.98 167.208,168.373 C167.581,163.679 169.387,159.511 172.493,155.894 C173.161,155.116 173.743,153.861 173.646,152.898 C173.18,148.286 172.467,143.698 171.8,138.791" id="Fill-11" fill="#FFFFFE" mask="url(#mask-2)"></path>
            <path d="M74.162,212.632 C76.57,206.903 79.093,201.849 80.836,196.539 C83.633,188.024 82.912,179.199 82.131,170.435 C81.038,158.157 82.705,146.403 88.725,135.468 C88.882,135.182 89.026,134.888 89.204,134.615 C89.282,134.494 89.428,134.416 89.522,134.336 C91.479,135.954 93.427,137.564 94.944,138.818 C94.267,143.581 93.513,148.075 93.068,152.599 C92.959,153.705 93.588,155.147 94.348,156.029 C98.447,160.789 99.995,166.469 99.77,172.473 C99.241,186.617 93.763,198.55 82.61,207.524 C80.163,209.494 77.2,210.822 74.162,212.632" id="Fill-12" fill="#FFFFFE" mask="url(#mask-2)"></path>
            <path d="M211.985,73.636 C207.836,73.866 203.618,73.696 199.556,74.413 C192.32,75.689 185.189,77.553 177.987,79.041 C176.862,79.273 175.581,78.891 174.398,78.663 C173.041,78.401 171.598,78.21 170.409,77.58 C169.481,77.087 168.316,76.025 168.229,75.123 C167.53,67.849 169.871,61.609 175.711,57.135 C177.688,55.621 180.379,54.657 182.871,54.275 C188.681,53.386 192.581,57.342 192.597,63.793 C192.602,65.812 192.213,67.832 191.946,70.434 C195.162,65.531 197.396,60.855 196.652,55.355 C196.068,51.038 191.815,47.877 186.329,48.084 C175.629,48.487 167.524,53.622 161.766,62.567 C161.426,63.095 161.176,63.681 160.801,64.399 C159.527,63.539 158.396,62.775 157.039,61.858 C157.717,60.6 158.176,59.351 158.958,58.358 C166.247,49.112 175.475,43.483 187.565,43.654 C196.637,43.783 203.136,51.543 201.752,60.558 C201.398,62.866 201.88,64.135 203.841,65.546 C206.907,67.75 209.562,70.524 212.39,73.057 C212.255,73.25 212.12,73.443 211.985,73.636" id="Fill-13" fill="#FFFFFE" mask="url(#mask-2)"></path>
            <path d="M53.881,73.354 C57.392,70.291 60.277,67.491 63.475,65.111 C64.981,63.991 65.204,63.015 65.124,61.303 C65.008,58.807 65.037,56.18 65.69,53.797 C67.305,47.912 71.43,44.574 77.452,43.729 C88.225,42.219 103.617,50.193 108.696,59.846 C108.996,60.416 109.216,61.03 109.589,61.892 C108.45,62.679 107.332,63.453 106.05,64.339 C105.809,63.991 105.575,63.706 105.396,63.391 C100.339,54.468 92.516,49.6 82.542,48.142 C80.517,47.846 78.263,48.258 76.26,48.843 C71.809,50.142 69.849,53.014 69.947,57.629 C70.044,62.211 71.96,66.134 74.775,69.761 C74.574,68.309 74.343,66.861 74.177,65.405 C73.189,56.759 79.758,51.814 87.813,55.131 C94.831,58.021 100.139,68.1 98.532,75.529 C98.433,75.989 98.237,76.682 97.916,76.799 C95.033,77.851 92.126,80.005 89.07,79.072 C78.085,75.718 66.943,73.689 55.443,73.732 C55.218,73.733 54.993,73.628 53.881,73.354" id="Fill-14" fill="#FFFFFE" mask="url(#mask-2)"></path>
            <path d="M223.769,158.827 C218.68,157.296 214.866,154.218 212.796,149.5 C209.029,140.914 203.056,134.218 195.954,128.32 C194.21,126.873 192.693,125.07 191.379,123.213 C189.761,120.925 189.225,118.31 190.086,115.498 C190.445,114.33 190.606,113.096 190.795,111.883 C191.362,108.256 191.35,108.254 195.079,108.326 C210.436,108.622 221.316,119.386 221.788,134.765 C221.956,140.26 221.97,145.764 222.31,151.248 C222.464,153.737 223.241,156.188 223.769,158.827" id="Fill-15" fill="#FFFFFE" mask="url(#mask-2)"></path>
            <path d="M42.681,158.83 C45.168,152.447 44.791,146.038 44.945,139.653 C45.044,135.495 45.244,131.241 46.201,127.221 C48.579,117.233 57.504,109.829 67.82,108.741 C69.693,108.543 71.581,108.475 73.462,108.36 C74.829,108.277 75.555,108.883 75.755,110.291 C76.066,112.479 76.515,114.647 76.887,116.827 C77.395,119.814 76.281,122.379 74.424,124.531 C72.61,126.634 70.564,128.567 68.45,130.376 C62.767,135.241 57.981,140.747 54.904,147.669 C52.55,152.967 48.944,157.078 42.681,158.83" id="Fill-16" fill="#FFFFFE" mask="url(#mask-2)"></path>
            <path d="M133.317,239.911 C131.163,237.528 129.168,234.732 126.613,232.611 C120.344,227.407 119.307,220.898 121.098,213.492 C121.714,210.947 122.592,208.458 123.09,205.894 C123.769,202.39 124.2,198.837 124.752,195.205 C126.155,195.869 127.902,196.559 129.508,197.49 C132.167,199.03 134.694,198.964 137.327,197.44 C138.871,196.545 140.537,195.862 142.594,194.869 C141.429,202.518 145.099,209.002 146.107,215.994 C146.972,221.999 145.911,227.158 141.281,231.453 C138.41,234.116 135.888,237.155 133.317,239.911" id="Fill-17" fill="#FFFFFE" mask="url(#mask-2)"></path>
            <path d="M231.572,113.814 C228.1,109.527 225.166,105.026 221.385,101.413 C213.293,93.683 203.064,90.549 192.157,89.427 C188.819,89.084 185.438,89.172 182.092,88.883 C181.314,88.815 180.343,88.181 179.903,87.515 C178.827,85.885 178.007,84.085 176.856,81.923 C182.026,80.713 186.959,79.214 192.004,78.468 C197.727,77.621 203.542,77.237 209.33,77.044 C214.142,76.884 217.619,79.708 220.523,83.271 C224.972,88.728 227.439,95.131 229.14,101.842 C230.14,105.789 230.775,109.828 231.572,113.814" id="Fill-18" fill="#FFFFFE" mask="url(#mask-2)"></path>
            <path d="M35.84,113.998 C35.917,107.85 37.102,101.936 39.342,96.347 C41.034,92.125 43.166,88.014 45.601,84.169 C48.986,78.827 54.191,76.539 60.502,76.752 C70.398,77.087 79.952,79.261 89.757,82.066 C88.63,84.21 87.719,86.275 86.475,88.116 C86.083,88.696 84.802,88.898 83.928,88.896 C75.835,88.875 67.89,89.812 60.236,92.54 C49.684,96.301 41.51,102.875 36.422,113.017 C36.252,113.355 36.036,113.671 35.84,113.998" id="Fill-19" fill="#FFFFFE" mask="url(#mask-2)"></path>
            <path d="M228.349,119.669 C221.694,113.773 214.273,109.52 205.782,107.419 C201.826,106.44 197.715,106.099 193.701,105.329 C192.663,105.129 191.522,104.612 190.78,103.884 C187.392,100.562 184.562,96.809 182.416,92.469 C200.579,88.134 226.075,103.243 228.349,119.669" id="Fill-20" fill="#FFFFFE" mask="url(#mask-2)"></path>
            <path d="M84.798,92.854 C81.587,96.827 78.637,100.734 75.364,104.35 C74.549,105.25 72.712,105.448 71.313,105.56 C58.88,106.55 48.029,111.215 38.069,119.891 C38.772,117.728 39.156,116.154 39.783,114.683 C43.533,105.874 50.39,100.271 58.924,96.526 C66.232,93.32 73.952,92.022 81.908,92.043 C82.48,92.045 83.054,92.104 83.623,92.168 C83.766,92.184 83.895,92.319 84.798,92.854" id="Fill-21" fill="#FFFFFE" mask="url(#mask-2)"></path>
            <path d="M80.301,40.517 C88.464,34.106 99.197,33.529 107.95,39.122 C116.318,44.47 121.217,52.452 124.786,61.779 C122.135,61.23 119.719,60.168 117.421,60.381 C113.652,60.73 111.771,59.083 109.619,56.244 C102.828,47.288 93.142,43.122 82.38,41.084 C81.898,40.993 81.408,40.944 80.927,40.848 C80.776,40.818 80.642,40.702 80.301,40.517" id="Fill-22" fill="#FFFFFE" mask="url(#mask-2)"></path>
            <path d="M142.108,61.282 C146.096,51.232 151.681,42.194 162.177,37.325 C170.008,33.692 179.121,34.985 186.603,40.601 C185.085,40.927 183.796,41.201 182.509,41.482 C171.051,43.988 161.292,49.123 154.801,59.345 C154.533,59.768 154.001,60.249 153.551,60.294 C149.782,60.675 146.003,60.959 142.108,61.282" id="Fill-23" fill="#FFFFFE" mask="url(#mask-2)"></path>
            <path d="M163.984,176.72 C163.509,182.284 165.082,187.42 167.321,192.388 C168.868,195.82 170.528,199.202 172.207,202.57 C174.252,206.669 174.075,210.637 171.574,214.448 C169.97,216.89 168.23,219.243 166.335,221.943 C165.62,215.739 162.834,210.772 160.097,205.751 C158.305,202.464 156.511,199.096 155.404,195.55 C154.778,193.549 154.896,190.8 155.806,188.938 C157.94,184.573 160.752,180.539 163.289,176.37 C163.521,176.487 163.752,176.603 163.984,176.72" id="Fill-24" fill="#FFFFFE" mask="url(#mask-2)"></path>
            <path d="M99.817,221.127 C98.432,219.142 96.733,216.832 95.166,214.437 C92.674,210.626 92.65,206.732 94.509,202.555 C97.257,196.376 99.859,190.121 102.198,183.778 C102.989,181.632 102.79,179.123 103.484,176.379 C106.092,180.756 108.907,185.027 111.232,189.549 C112.696,192.395 111.886,195.541 110.535,198.328 C108.894,201.71 106.857,204.903 105.268,208.306 C103.287,212.551 101.588,216.927 99.817,221.127" id="Fill-25" fill="#FFFFFE" mask="url(#mask-2)"></path>
            <path d="M117.31,229.991 C115.304,228.757 113.813,227.909 112.394,226.956 C105.534,222.348 104.257,217.552 108.039,210.123 C109.598,207.059 111.485,204.165 113.094,201.124 C115.055,197.422 116.106,193.519 115.045,189.272 C119.514,191.464 122.171,196.788 120.969,201.673 C119.974,205.719 118.6,209.669 117.45,213.678 C115.956,218.885 115.744,224.139 117.31,229.991" id="Fill-26" fill="#FFFFFE" mask="url(#mask-2)"></path>
            <path d="M151.786,188.785 C150.469,194.086 152.1,198.475 154.454,202.706 C156.048,205.571 157.834,208.343 159.235,211.298 C162.211,217.584 160.914,222.322 155.291,226.301 C153.564,227.524 151.712,228.571 149.364,230.045 C151.889,221.492 149.594,214.014 147.067,206.547 C146.439,204.691 145.865,202.782 145.579,200.85 C144.797,195.564 147.638,192.034 151.786,188.785" id="Fill-27" fill="#FFFFFE" mask="url(#mask-2)"></path>
            <path d="M149.988,102.231 C152.261,104.353 154.233,104.874 156.486,103.667 C158.961,102.342 160.464,99.526 160.045,96.409 C156.681,98.356 153.486,100.206 149.988,102.231 Z M153.127,108.338 C152.923,111.728 152.719,115.118 152.524,118.358 C149.136,110.792 145.749,103.228 142.731,96.486 C144.124,97.005 146.305,98.515 148.406,98.412 C150.665,98.3 153.058,96.982 155.027,95.651 C159.509,92.62 164.017,90.549 169.445,92.956 C169.566,93.009 169.657,93.131 169.893,93.335 C169.249,93.756 168.667,94.165 168.058,94.529 C164.761,96.497 162.852,99.401 162.145,103.153 C161.545,106.336 160.47,109.303 158.071,111.631 C156.669,110.393 155.273,109.158 153.876,107.924 C153.627,108.062 153.377,108.2 153.127,108.338 Z" id="Fill-28" fill="#1A1919" mask="url(#mask-2)"></path>
            <path d="M106.423,96.255 C106.502,100.224 108.24,102.94 110.904,103.964 C113.051,104.79 114.808,104.151 116.666,102.191 C113.254,100.214 110.055,98.36 106.423,96.255 Z M96.389,93.361 C100.662,91.525 104.322,91.288 107.92,93.419 C109.539,94.378 111.124,95.398 112.707,96.417 C117.624,99.585 120.287,99.406 124.34,95.756 C121.017,103.151 117.601,110.75 114.219,118.276 C114.012,115.104 113.788,111.664 113.51,107.412 C111.559,109.083 110.185,110.262 108.661,111.568 C106.657,109.785 105.458,107.338 104.962,104.576 C104.066,99.592 101.783,95.665 96.389,93.361 Z" id="Fill-29" fill="#1A1919" mask="url(#mask-2)"></path>
            <path d="M149.988,102.231 C153.486,100.206 156.681,98.356 160.045,96.409 C160.464,99.526 158.961,102.342 156.486,103.667 C154.233,104.874 152.261,104.353 149.988,102.231" id="Fill-30" fill="#FFFFFE" mask="url(#mask-2)"></path>
            <path d="M106.423,96.255 C110.055,98.36 113.254,100.214 116.666,102.191 C114.808,104.151 113.051,104.79 110.904,103.964 C108.24,102.94 106.502,100.224 106.423,96.255" id="Fill-31" fill="#FFFFFE" mask="url(#mask-2)"></path>
        </g>
    </g>
</svg>